:FULLY-SPECIFIED
:FORCE-ALL-JOINTS-BE-3DOF
:DEGREES
238
root 6.47453 15.832 -25.5882 9.24683 32.9448 3.45797
lfemur -17.9365 11.6213 -11.9072
ltibia 29.0026 0 0
lfoot -21.4217 -12.6867 0
ltoes 53.971 0 0
rfemur -25.6787 -5.35131 -2.78614
rtibia 65.0914 0 0
rfoot 1.22183 7.51363 0
rtoes 14.0268 0 0
lowerback 1.0492 -2.21386 -1.64942
upperback -0.620366 -2.95091 -1.41693
thorax -1.13965 -1.44764 -0.487331
lowerneck -10.0193 -5.48586 0.790856
upperneck 3.1424 -7.5729 1.46015
head 2.88935 -3.68517 -0.0763852
lclavicle -9.1558e-015 -1.25585e-014 0
lhumerus -53.4116 -38.5738 116.783
lradius 58.613 0 0
lwrist 22.3076 0 0
lhand 20.0336 17.8997 0
lfingers 7.12502 0 0
lthumb 44.2079 38.9487 0
rclavicle -9.1558e-015 -1.25585e-014 0
rhumerus -29.1275 -9.74262 -49.766
rradius 40.8837 0 0
rwrist 15.9613 0 0
rhand -13.6958 -23.8487 0
rfingers 7.12502 0 0
rthumb 12.4055 -646.029 0
239
root 6.52351 15.8558 -25.5926 9.31054 33.9936 3.39125
lfemur -18.7156 12.0173 -12.289
ltibia 29.7104 0 0
lfoot -20.9762 -12.7001 0
ltoes 54.1861 0 0
rfemur -25.5015 -4.91291 -2.60794
rtibia 65.5229 0 0
rfoot 2.06137 7.19061 0
rtoes 12.6266 0 0
lowerback 1.18027 -2.23605 -1.68659
upperback -0.61993 -2.98333 -1.22608
thorax -1.20252 -1.46276 -0.262593
lowerneck -9.97317 -5.66333 0.60433
upperneck 3.12095 -7.78109 1.43024
head 2.87727 -3.79314 -0.0645953
lclavicle -8.74654e-015 -1.19271e-014 0
lhumerus -53.2359 -38.3196 116.8
lradius 58.753 0 0
lwrist 22.1957 0 0
lhand 19.4171 17.5283 0
lfingers 7.12502 0 0
lthumb 43.6473 38.8945 0
rclavicle -8.74654e-015 -1.19271e-014 0
rhumerus -29.9343 -9.42445 -50.8864
rradius 40.5242 0 0
rwrist 17.1239 0 0
rhand -13.1857 -22.8975 0
rfingers 7.12502 0 0
rthumb 12.8974 -652.115 0
240
root 6.57248 15.8797 -25.597 9.37425 35.0424 3.32453
lfemur -19.4947 12.4133 -12.6708
ltibia 30.4182 0 0
lfoot -20.5307 -12.7135 0
ltoes 54.4013 0 0
rfemur -25.3244 -4.4745 -2.42975
rtibia 65.9544 0 0
rfoot 2.9009 6.8676 0
rtoes 11.2264 0 0
lowerback 1.31134 -2.25825 -1.72376
upperback -0.619494 -3.01575 -1.03524
thorax -1.26539 -1.47787 -0.0378555
lowerneck -9.92703 -5.84081 0.417804
upperneck 3.0995 -7.98928 1.40033
head 2.86518 -3.90111 -0.0528055
lclavicle -8.33728e-015 -1.12956e-014 0
lhumerus -53.0602 -38.0654 116.817
lradius 58.8931 0 0
lwrist 22.0839 0 0
lhand 18.8006 17.157 0
lfingers 7.12502 0 0
lthumb 43.0867 38.8403 0
rclavicle -8.33728e-015 -1.12956e-014 0
rhumerus -30.7411 -9.10627 -52.0068
rradius 40.1648 0 0
rwrist 18.2865 0 0
rhand -12.6757 -21.9463 0
rfingers 7.12502 0 0
rthumb 13.3892 -658.202 0
241
root 6.62145 15.9035 -25.6013 9.43796 36.0912 3.25781
lfemur -20.2738 12.8092 -13.0526
ltibia 31.126 0 0
lfoot -20.0852 -12.7269 0
ltoes 54.6164 0 0
rfemur -25.1472 -4.0361 -2.25155
rtibia 66.386 0 0
rfoot 3.74044 6.54458 0
rtoes 9.82629 0 0
lowerback 1.44241 -2.28044 -1.76093
upperback -0.619057 -3.04817 -0.844392
thorax -1.32826 -1.49299 0.186882
lowerneck -9.88088 -6.01829 0.231277
upperneck 3.07806 -8.19746 1.37042
head 2.85309 -4.00908 -0.0410156
lclavicle -7.92801e-015 -1.06642e-014 0
lhumerus -52.8845 -37.8112 116.834
lradius 59.0332 0 0
lwrist 21.9721 0 0
lhand 18.1841 16.7856 0
lfingers 7.12502 0 0
lthumb 42.5261 38.7861 0
rclavicle -7.92801e-015 -1.06642e-014 0
rhumerus -31.548 -8.7881 -53.1271
rradius 39.8054 0 0
rwrist 19.4491 0 0
rhand -12.1657 -20.9952 0
rfingers 7.12502 0 0
rthumb 13.8811 -664.288 0
242
root 6.67042 15.9274 -25.6057 9.50167 37.14 3.19108
lfemur -21.0528 13.2052 -13.4344
ltibia 31.8338 0 0
lfoot -19.6397 -12.7403 0
ltoes 54.8316 0 0
rfemur -24.9701 -3.59769 -2.07336
rtibia 66.8175 0 0
rfoot 4.57998 6.22157 0
rtoes 8.42614 0 0
lowerback 1.57349 -2.30264 -1.7981
upperback -0.618621 -3.08059 -0.653547
thorax -1.39113 -1.50811 0.41162
lowerneck -9.83473 -6.19577 0.0447506
upperneck 3.05661 -8.40565 1.34051
head 2.84101 -4.11705 -0.0292258
lclavicle -7.51875e-015 -1.00328e-014 0
lhumerus -52.7088 -37.557 116.85
lradius 59.1732 0 0
lwrist 21.8603 0 0
lhand 17.5675 16.4142 0
lfingers 7.12502 0 0
lthumb 41.9654 38.7319 0
rclavicle -7.51875e-015 -1.00328e-014 0
rhumerus -32.3548 -8.46993 -54.2475
rradius 39.4459 0 0
rwrist 20.6117 0 0
rhand -11.6557 -20.044 0
rfingers 7.12502 0 0
rthumb 14.3729 -670.374 0
243
root 6.7194 15.9512 -25.61 9.56538 38.1888 3.12436
lfemur -21.8319 13.6012 -13.8162
ltibia 32.5416 0 0
lfoot -19.1942 -12.7537 0
ltoes 55.0467 0 0
rfemur -24.793 -3.15928 -1.89516
rtibia 67.249 0 0
rfoot 5.41952 5.89856 0
rtoes 7.02599 0 0
lowerback 1.70456 -2.32483 -1.83527
upperback -0.618184 -3.11301 -0.462701
thorax -1.454 -1.52322 0.636358
lowerneck -9.78858 -6.37325 -0.141776
upperneck 3.03516 -8.61384 1.3106
head 2.82892 -4.22502 -0.017436
lclavicle -7.10949e-015 -9.40134e-015 0
lhumerus -52.5331 -37.3028 116.867
lradius 59.3133 0 0
lwrist 21.7484 0 0
lhand 16.951 16.0429 0
lfingers 7.12502 0 0
lthumb 41.4048 38.6777 0
rclavicle -7.10949e-015 -9.40134e-015 0
rhumerus -33.1616 -8.15176 -55.3678
rradius 39.0865 0 0
rwrist 21.7743 0 0
rhand -11.1457 -19.0929 0
rfingers 7.12502 0 0
rthumb 14.8648 -676.46 0
244
root 6.76837 15.975 -25.6144 9.62909 39.2376 3.05764
lfemur -22.611 13.9972 -14.198
ltibia 33.2494 0 0
lfoot -18.7487 -12.767 0
ltoes 55.2619 0 0
rfemur -24.6158 -2.72088 -1.71697
rtibia 67.6806 0 0
rfoot 6.25905 5.57554 0
rtoes 5.62584 0 0
lowerback 1.83563 -2.34703 -1.87244
upperback -0.617748 -3.14543 -0.271856
thorax -1.51687 -1.53834 0.861096
lowerneck -9.74243 -6.55073 -0.328302
upperneck 3.01371 -8.82203 1.28069
head 2.81684 -4.33299 -0.00564612
lclavicle -6.70022e-015 -8.76991e-015 0
lhumerus -52.3575 -37.0486 116.884
lradius 59.4534 0 0
lwrist 21.6366 0 0
lhand 16.3345 15.6715 0
lfingers 7.12502 0 0
lthumb 40.8442 38.6235 0
rclavicle -6.70022e-015 -8.76991e-015 0
rhumerus -33.9684 -7.83359 -56.4882
rradius 38.727 0 0
rwrist 22.9369 0 0
rhand -10.6357 -18.1417 0
rfingers 7.12502 0 0
rthumb 15.3566 -682.547 0
245
root 6.81734 15.9989 -25.6188 9.6928 40.2863 2.99092
lfemur -23.3901 14.3931 -14.5798
ltibia 33.9571 0 0
lfoot -18.3032 -12.7804 0
ltoes 55.477 0 0
rfemur -24.4387 -2.28247 -1.53877
rtibia 68.1121 0 0
rfoot 7.09859 5.25253 0
rtoes 4.22568 0 0
lowerback 1.9667 -2.36922 -1.90961
upperback -0.617311 -3.17785 -0.0810104
thorax -1.57974 -1.55345 1.08583
lowerneck -9.69629 -6.72821 -0.514829
upperneck 2.99226 -9.03022 1.25078
head 2.80475 -4.44096 0.00614373
lclavicle -6.29096e-015 -8.13847e-015 0
lhumerus -52.1818 -36.7944 116.901
lradius 59.5934 0 0
lwrist 21.5248 0 0
lhand 15.718 15.3001 0
lfingers 7.12502 0 0
lthumb 40.2836 38.5693 0
rclavicle -6.29096e-015 -8.13847e-015 0
rhumerus -34.7753 -7.51541 -57.6086
rradius 38.3676 0 0
rwrist 24.0995 0 0
rhand -10.1256 -17.1905 0
rfingers 7.12502 0 0
rthumb 15.8485 -688.633 0
246
root 6.86631 16.0227 -25.6231 9.75651 41.3351 2.92419
lfemur -24.1692 14.7891 -14.9616
ltibia 34.6649 0 0
lfoot -17.8577 -12.7938 0
ltoes 55.6921 0 0
rfemur -24.2615 -1.84407 -1.36058
rtibia 68.5436 0 0
rfoot 7.93813 4.92951 0
rtoes 2.82553 0 0
lowerback 2.09777 -2.39141 -1.94678
upperback -0.616875 -3.21027 0.109835
thorax -1.64261 -1.56857 1.31057
lowerneck -9.65014 -6.90568 -0.701355
upperneck 2.97081 -9.23841 1.22087
head 2.79266 -4.54893 0.0179336
lclavicle -5.8817e-015 -7.50704e-015 0
lhumerus -52.0061 -36.5402 116.918
lradius 59.7335 0 0
lwrist 21.413 0 0
lhand 15.1014 14.9288 0
lfingers 7.12502 0 0
lthumb 39.7229 38.515 0
rclavicle -5.8817e-015 -7.50704e-015 0
rhumerus -35.5821 -7.19724 -58.7289
rradius 38.0082 0 0
rwrist 25.2621 0 0
rhand -9.61562 -16.2394 0
rfingers 7.12502 0 0
rthumb 16.3404 -694.719 0
247
root 6.91529 16.0465 -25.6275 9.82022 42.3839 2.85747
lfemur -24.9483 15.1851 -15.3434
ltibia 35.3727 0 0
lfoot -17.4122 -12.8072 0
ltoes 55.9073 0 0
rfemur -24.0844 -1.40566 -1.18238
rtibia 68.9752 0 0
rfoot 8.77766 4.6065 0
rtoes 1.42538 0 0
lowerback 2.22884 -2.41361 -1.98395
upperback -0.616438 -3.24269 0.300681
thorax -1.70548 -1.58369 1.53531
lowerneck -9.60399 -7.08316 -0.887882
upperneck 2.94937 -9.4466 1.19096
head 2.78058 -4.6569 0.0297234
lclavicle -5.47243e-015 -6.87561e-015 0
lhumerus -51.8304 -36.286 116.935
lradius 59.8736 0 0
lwrist 21.3011 0 0
lhand 14.4849 14.5574 0
lfingers 7.12502 0 0
lthumb 39.1623 38.4608 0
rclavicle -5.47243e-015 -6.87561e-015 0
rhumerus -36.3889 -6.87907 -59.8493
rradius 37.6487 0 0
rwrist 26.4247 0 0
rhand -9.10561 -15.2882 0
rfingers 7.12502 0 0
rthumb 16.8322 -700.806 0
248
root 6.96426 16.0704 -25.6318 9.88393 43.4327 2.79075
lfemur -25.7274 15.581 -15.7252
ltibia 36.0805 0 0
lfoot -16.9667 -12.8206 0
ltoes 56.1224 0 0
rfemur -23.9072 -0.967255 -1.00419
rtibia 69.4067 0 0
rfoot 9.6172 4.28348 0
rtoes 0.0252235 0 0
lowerback 2.35992 -2.4358 -2.02112
upperback -0.616002 -3.27511 0.491526
thorax -1.76835 -1.5988 1.76005
lowerneck -9.55784 -7.26064 -1.07441
upperneck 2.92792 -9.65479 1.16105
head 2.76849 -4.76488 0.0415133
lclavicle -5.06317e-015 -6.24418e-015 0
lhumerus -51.6547 -36.0318 116.951
lradius 60.0137 0 0
lwrist 21.1893 0 0
lhand 13.8684 14.186 0
lfingers 7.12502 0 0
lthumb 38.6017 38.4066 0
rclavicle -5.06317e-015 -6.24418e-015 0
rhumerus -37.1958 -6.5609 -60.9696
rradius 37.2893 0 0
rwrist 27.5873 0 0
rhand -8.59559 -14.337 0
rfingers 7.12502 0 0
rthumb 17.3241 -706.892 0
249
root 7.01323 16.0942 -25.6362 9.94764 44.4815 2.72403
lfemur -26.5065 15.977 -16.1069
ltibia 36.7883 0 0
lfoot -16.5212 -12.834 0
ltoes 56.3376 0 0
rfemur -23.7301 -0.52885 -0.825992
rtibia 69.8383 0 0
rfoot 10.4567 3.96047 0
rtoes -1.37493 0 0
lowerback 2.49099 -2.458 -2.05829
upperback -0.615565 -3.30753 0.682372
thorax -1.83122 -1.61392 1.98479
lowerneck -9.51169 -7.43812 -1.26093
upperneck 2.90647 -9.86298 1.13114
head 2.7564 -4.87285 0.0533031
lclavicle -4.6539e-015 -5.61274e-015 0
lhumerus -51.479 -35.7776 116.968
lradius 60.1537 0 0
lwrist 21.0775 0 0
lhand 13.2519 13.8147 0
lfingers 7.12502 0 0
lthumb 38.0411 38.3524 0
rclavicle -4.6539e-015 -5.61274e-015 0
rhumerus -38.0026 -6.24273 -62.09
rradius 36.9299 0 0
rwrist 28.7499 0 0
rhand -8.08558 -13.3859 0
rfingers 7.12502 0 0
rthumb 17.8159 -712.978 0
250
root 7.0622 16.1181 -25.6405 10.0113 45.5303 2.6573
lfemur -27.2856 16.373 -16.4887
ltibia 37.4961 0 0
lfoot -16.0757 -12.8474 0
ltoes 56.5527 0 0
rfemur -23.553 -0.0904441 -0.647797
rtibia 70.2698 0 0
rfoot 11.2963 3.63746 0
rtoes -2.77508 0 0
lowerback 2.62206 -2.48019 -2.09546
upperback -0.615129 -3.33994 0.873217
thorax -1.89409 -1.62903 2.20952
lowerneck -9.46555 -7.6156 -1.44746
upperneck 2.88502 -10.0712 1.10123
head 2.74432 -4.98082 0.0650929
lclavicle -4.24464e-015 -4.98131e-015 0
lhumerus -51.3033 -35.5234 116.985
lradius 60.2938 0 0
lwrist 20.9657 0 0
lhand 12.6354 13.4433 0
lfingers 7.12502 0 0
lthumb 37.4804 38.2982 0
rclavicle -4.24464e-015 -4.98131e-015 0
rhumerus -38.8094 -5.92455 -63.2103
rradius 36.5704 0 0
rwrist 29.9125 0 0
rhand -7.57556 -12.4347 0
rfingers 7.12502 0 0
rthumb 18.3078 -719.064 0
251
root 7.11118 16.1419 -25.6449 10.0751 46.5791 2.59058
lfemur -28.0647 16.7689 -16.8705
ltibia 38.2039 0 0
lfoot -15.6302 -12.8608 0
ltoes 56.7679 0 0
rfemur -23.3758 0.347962 -0.469602
rtibia 70.7013 0 0
rfoot 12.1358 3.31444 0
rtoes -4.17524 0 0
lowerback 2.75313 -2.50239 -2.13263
upperback -0.614692 -3.37236 1.06406
thorax -1.95696 -1.64415 2.43426
lowerneck -9.4194 -7.79308 -1.63399
upperneck 2.86357 -10.2794 1.07132
head 2.73223 -5.08879 0.0768828
lclavicle -3.83538e-015 -4.34988e-015 0
lhumerus -51.1276 -35.2692 117.002
lradius 60.4339 0 0
lwrist 20.8538 0 0
lhand 12.0188 13.0719 0
lfingers 7.12502 0 0
lthumb 36.9198 38.244 0
rclavicle -3.83538e-015 -4.34988e-015 0
rhumerus -39.6163 -5.60638 -64.3307
rradius 36.211 0 0
rwrist 31.0751 0 0
rhand -7.06554 -11.4835 0
rfingers 7.12502 0 0
rthumb 18.7996 -725.151 0
